<svg width="1512" height="593" viewBox="0 0 1512 593" fill="none" xmlns="http://www.w3.org/2000/svg">
<path d="M568 413.4C580.8 413.4 591 414.467 598.6 416.6C606.2 418.6 611.667 422.2 615 427.4C618.333 432.6 620 439.933 620 449.4C620 459.267 618.067 466.8 614.2 472C610.333 477.067 603.867 480 594.8 480.8V482C605.867 482.933 613.6 486.533 618 492.8C622.4 498.933 624.6 507.533 624.6 518.6C624.6 528.067 622.8 535.4 619.2 540.6C615.733 545.8 610.333 549.467 603 551.6C595.667 553.6 586.2 554.6 574.6 554.6C564.733 554.6 556 554.533 548.4 554.4C540.933 554.4 534 554.267 527.6 554C521.333 553.733 514.933 553.4 508.4 553L511.6 524.6C515.067 524.733 521.8 524.867 531.8 525C541.8 525.133 553.467 525.2 566.8 525.2C570.8 525.2 573.867 524.8 576 524C578.133 523.2 579.533 521.667 580.2 519.4C581 517.133 581.4 513.933 581.4 509.8C581.4 505.533 581 502.267 580.2 500C579.4 497.733 577.933 496.2 575.8 495.4C573.8 494.6 570.733 494.2 566.6 494.2H511.4V468.8H566.2C569.533 468.8 572.067 468.467 573.8 467.8C575.667 467.133 576.933 465.867 577.6 464C578.267 462 578.6 459.2 578.6 455.6C578.6 452 578.267 449.333 577.6 447.6C576.933 445.733 575.667 444.467 573.8 443.8C571.933 443.133 569.267 442.8 565.8 442.8C557.4 442.8 550.067 442.8 543.8 442.8C537.533 442.667 531.867 442.667 526.8 442.8C521.733 442.8 516.667 443 511.6 443.4L508.4 415C514.4 414.467 520.267 414.133 526 414C531.733 413.733 537.933 413.6 544.6 413.6C551.4 413.467 559.2 413.4 568 413.4ZM550.8 415V553H508.4V415H550.8ZM718.031 415C721.498 415 724.565 416 727.231 418C729.898 420 731.698 422.733 732.631 426.2L768.431 553H724.231L703.431 463.2C702.898 460.667 702.431 458.067 702.031 455.4C701.631 452.6 701.298 449.933 701.031 447.4H695.631C695.365 449.933 695.031 452.6 694.631 455.4C694.231 458.067 693.765 460.667 693.231 463.2L672.431 553H628.231L664.031 426.2C664.965 422.733 666.765 420 669.431 418C672.098 416 675.165 415 678.631 415H718.031ZM735.031 492.8V523.2H661.631V492.8H735.031ZM829.355 412.2C836.555 412.2 844.621 412.667 853.555 413.6C862.621 414.4 871.288 416.267 879.555 419.2L876.955 447C870.955 446.867 863.488 446.8 854.555 446.8C845.755 446.667 837.021 446.6 828.355 446.6C825.821 446.6 823.688 446.667 821.955 446.8C820.355 446.933 819.088 447.2 818.155 447.6C817.221 448 816.555 448.533 816.155 449.2C815.755 449.867 815.555 450.733 815.555 451.8C815.555 453.667 816.355 455.267 817.955 456.6C819.688 457.8 822.888 459.333 827.555 461.2L852.555 471.6C864.021 476.533 872.021 482.267 876.555 488.8C881.221 495.2 883.555 503.467 883.555 513.6C883.555 521.333 882.621 527.933 880.755 533.4C878.888 538.733 875.755 543.067 871.355 546.4C867.088 549.6 861.355 551.933 854.155 553.4C846.955 555 837.955 555.8 827.155 555.8C822.488 555.8 815.421 555.4 805.955 554.6C796.488 553.933 785.755 552.067 773.755 549L776.355 518.6C784.355 518.733 791.688 518.933 798.355 519.2C805.021 519.333 810.755 519.467 815.555 519.6C820.488 519.6 824.155 519.6 826.555 519.6C830.288 519.6 833.088 519.467 834.955 519.2C836.955 518.933 838.288 518.467 838.955 517.8C839.755 517 840.155 516 840.155 514.8C840.155 513.467 839.888 512.4 839.355 511.6C838.821 510.667 837.888 509.8 836.555 509C835.221 508.2 833.288 507.333 830.755 506.4L803.355 494.4C792.155 489.333 784.221 483.667 779.555 477.4C774.888 471.133 772.555 462.933 772.555 452.8C772.555 444.933 773.555 438.4 775.555 433.2C777.688 428 780.955 423.867 785.355 420.8C789.755 417.733 795.555 415.533 802.755 414.2C810.088 412.867 818.955 412.2 829.355 412.2ZM942.225 415V553H899.225V415H942.225ZM1021.88 412.6C1029.08 412.6 1035.22 412.8 1040.28 413.2C1045.35 413.6 1049.95 414.2 1054.08 415C1058.35 415.667 1062.75 416.667 1067.28 418L1064.08 449.6C1059.42 449.467 1055.08 449.4 1051.08 449.4C1047.08 449.4 1042.82 449.4 1038.28 449.4C1033.75 449.267 1028.28 449.2 1021.88 449.2C1017.35 449.2 1013.82 450.2 1011.28 452.2C1008.88 454.067 1007.22 457.533 1006.28 462.6C1005.35 467.533 1004.88 474.667 1004.88 484C1004.88 493.333 1005.35 500.533 1006.28 505.6C1007.22 510.533 1008.88 514 1011.28 516C1013.82 517.867 1017.35 518.8 1021.88 518.8C1031.88 518.8 1040.22 518.733 1046.88 518.6C1053.68 518.333 1060.42 517.867 1067.08 517.2L1070.28 548.8C1063.35 551.2 1056.22 552.867 1048.88 553.8C1041.68 554.867 1032.68 555.4 1021.88 555.4C1006.68 555.4 994.483 553.133 985.283 548.6C976.083 543.933 969.416 536.4 965.283 526C961.283 515.6 959.283 501.6 959.283 484C959.283 466.4 961.283 452.4 965.283 442C969.416 431.6 976.083 424.133 985.283 419.6C994.483 414.933 1006.68 412.6 1021.88 412.6Z" fill="white"/>
<path d="M353 139C353 111.386 375.386 89 403 89H412C439.614 89 462 111.386 462 139V503C462 530.614 439.614 553 412 553H403C375.386 553 353 530.614 353 503V139Z" fill="#3C81FA"/>
<path d="M77 89H68C40.3858 89 18 111.386 18 139V503C18 530.614 40.3858 553 68 553H77C104.614 553 127 530.614 127 503V139C127 111.386 104.614 89 77 89Z" fill="#6572ED"/>
<path d="M26.3963 170.008C11.818 146.556 19.012 115.726 42.4645 101.148L50.1081 96.3963C73.5607 81.8181 104.391 89.0121 118.969 112.465L295.772 396.893L203.199 454.437L26.3963 170.008Z" fill="#3C81FA"/>
<path d="M550.918 113.433L544.51 107.115C524.846 87.7265 493.189 87.9496 473.801 107.613L201.105 384.181C181.717 403.844 181.94 435.502 201.603 454.89L208.012 461.209C227.675 480.597 259.333 480.374 278.721 460.71L551.417 184.142C570.805 164.479 570.582 132.822 550.918 113.433Z" fill="#FEAC4F"/>
<path d="M605.5 109C635.6 109 660 84.5995 660 54.5C660 24.4005 635.6 0 605.5 0C575.4 0 551 24.4005 551 54.5C551 84.5995 575.4 109 605.5 109Z" fill="#FEAC4F"/>
<path d="M422.5 109C452.6 109 477 84.5995 477 54.5C477 24.4005 452.6 0 422.5 0C392.4 0 368 24.4005 368 54.5C368 84.5995 392.4 109 422.5 109Z" fill="#FEAC4F"/>
</svg>
