<svg width="100" height="100" viewBox="0 0 100 100" fill="none" xmlns="http://www.w3.org/2000/svg">
<g clip-path="url(#clip0_505_186)">
<path d="M53.4849 29.3653C53.4849 25.1208 56.8767 21.6799 61.0606 21.6799H62.4243C66.6082 21.6799 70 25.1208 70 29.3653V85.3147C70 89.5591 66.6082 93 62.4243 93H61.0606C56.8767 93 53.4849 89.5591 53.4849 85.3147V29.3653Z" fill="#3C81FA"/>
<path d="M11.6664 21.6799H10.3028C6.11883 21.6799 2.72705 25.1208 2.72705 29.3653V85.3147C2.72705 89.5592 6.11883 93 10.3028 93H11.6664C15.8504 93 19.2422 89.5592 19.2422 85.3147V29.3653C19.2422 25.1208 15.8504 21.6799 11.6664 21.6799Z" fill="#6572ED"/>
<path d="M3.99922 34.1314C1.79039 30.5267 2.88039 25.7879 6.43379 23.5471L7.59192 22.8168C11.1453 20.576 15.8166 21.6818 18.0254 25.2866L44.8137 69.0052L30.7875 77.8501L3.99922 34.1314Z" fill="#3C81FA"/>
<path d="M83.4724 25.4355L82.5014 24.4643C79.5221 21.4842 74.7255 21.5185 71.788 24.5409L30.4704 67.0514C27.5328 70.0738 27.5666 74.9397 30.5459 77.9198L31.5169 78.8911C34.4962 81.8712 39.2928 81.8369 42.2304 78.8145L83.548 36.304C86.4856 33.2816 86.4517 28.4156 83.4724 25.4355Z" fill="#FEAC4F"/>
<path d="M91.7424 24.7541C96.303 24.7541 100 21.0035 100 16.377C100 11.7505 96.303 8 91.7424 8C87.1819 8 83.4849 11.7505 83.4849 16.377C83.4849 21.0035 87.1819 24.7541 91.7424 24.7541Z" fill="#FEAC4F"/>
<path d="M64.0154 24.7541C68.5759 24.7541 72.273 21.0035 72.273 16.377C72.273 11.7505 68.5759 8 64.0154 8C59.4549 8 55.7578 11.7505 55.7578 16.377C55.7578 21.0035 59.4549 24.7541 64.0154 24.7541Z" fill="#FEAC4F"/>
</g>
<defs>
<clipPath id="clip0_505_186">
<rect width="100" height="85" fill="white" transform="translate(0 8)"/>
</clipPath>
</defs>
</svg>
