<svg width="1512" height="593" viewBox="0 0 1512 593" fill="none" xmlns="http://www.w3.org/2000/svg">
<path d="M566.8 413C581.467 413 592.933 414.4 601.2 417.2C609.467 419.867 615.333 424.6 618.8 431.4C622.267 438.2 624 447.733 624 460C624 472.133 622.333 481.6 619 488.4C615.8 495.067 610.467 499.8 603 502.6C595.533 505.267 585.467 506.6 572.8 506.6C566.133 506.6 559.467 506.267 552.8 505.6C546.133 504.8 539.867 503.867 534 502.8C528.267 501.6 523.333 500.4 519.2 499.2C515.067 497.867 512.2 496.667 510.6 495.6L511.2 476C519.867 476 528.867 476 538.2 476C547.533 476 556.733 476 565.8 476C569.8 476 572.867 475.6 575 474.8C577.133 473.867 578.6 472.267 579.4 470C580.2 467.6 580.6 464.267 580.6 460C580.6 455.6 580.2 452.2 579.4 449.8C578.6 447.4 577.133 445.8 575 445C572.867 444.067 569.8 443.6 565.8 443.6C552.2 443.6 540.6 443.667 531 443.8C521.4 443.933 514.867 444.2 511.4 444.6L508.4 415C514.533 414.333 520.267 413.867 525.6 413.6C531.067 413.333 537 413.2 543.4 413.2C549.8 413.067 557.6 413 566.8 413ZM551.8 415V553H508.4V415H551.8ZM696.297 413C709.897 413 720.964 414.267 729.497 416.8C738.03 419.333 744.297 423.667 748.297 429.8C752.43 435.8 754.497 444.2 754.497 455C754.497 460.467 753.63 465.6 751.897 470.4C750.297 475.067 747.43 478.933 743.297 482C739.297 485.067 733.697 487 726.497 487.8V489C729.03 489.267 731.83 490.067 734.897 491.4C737.964 492.6 740.83 494.733 743.497 497.8C746.164 500.733 748.03 505 749.097 510.6L759.897 553H714.497L705.497 512C704.697 508.133 703.43 505.6 701.697 504.4C700.097 503.2 697.43 502.6 693.697 502.6C683.697 502.467 675.497 502.4 669.097 502.4C662.83 502.4 657.497 502.333 653.097 502.2C648.697 502.067 644.297 501.867 639.897 501.6L640.497 472H695.297C699.43 472 702.63 471.6 704.897 470.8C707.164 470 708.697 468.6 709.497 466.6C710.43 464.467 710.897 461.533 710.897 457.8C710.897 453.933 710.43 451 709.497 449C708.697 447 707.164 445.6 704.897 444.8C702.63 444 699.43 443.6 695.297 443.6C681.43 443.6 669.764 443.667 660.297 443.8C650.83 443.933 644.364 444.2 640.897 444.6L637.697 415C643.83 414.333 649.564 413.867 654.897 413.6C660.364 413.333 666.297 413.2 672.697 413.2C679.23 413.067 687.097 413 696.297 413ZM680.297 415V553H637.697V415H680.297ZM804.253 414.2C812.253 414.2 820.453 414.267 828.853 414.4C837.386 414.4 845.72 414.6 853.853 415C861.986 415.267 869.386 415.867 876.053 416.8L874.053 447.4H823.453C820.92 447.4 818.92 448.067 817.453 449.4C815.986 450.733 815.253 452.467 815.253 454.6V513.4C815.253 515.533 815.986 517.267 817.453 518.6C818.92 519.933 820.92 520.6 823.453 520.6H874.053L876.053 551.2C869.386 552 861.986 552.6 853.853 553C845.72 553.4 837.386 553.6 828.853 553.6C820.453 553.733 812.253 553.8 804.253 553.8C794.786 553.8 786.986 550.933 780.853 545.2C774.853 539.333 771.853 531.733 771.853 522.4V445.6C771.853 436.267 774.853 428.733 780.853 423C786.986 417.133 794.786 414.2 804.253 414.2ZM775.453 468H866.853V496.8H775.453V468ZM1043.99 415C1053.73 415 1058.79 420 1059.19 430L1063.99 553H1024.99L1020.79 447.4H1017.79L1004.19 517.8C1002.86 526.6 997.394 531 987.794 531H965.394C955.927 531 950.394 526.6 948.794 517.8L934.994 447.4H931.994L928.594 553H889.594L894.394 430C894.794 420 899.86 415 909.594 415H946.994C956.327 415 961.794 419.467 963.394 428.4L973.394 483.2C973.927 486.533 974.327 489.933 974.594 493.4C974.994 496.867 975.327 500.333 975.594 503.8H977.394C977.794 500.333 978.127 496.867 978.394 493.4C978.794 489.933 979.26 486.533 979.794 483.2L989.194 428.4C990.794 419.467 996.327 415 1005.79 415H1043.99ZM1125.62 415V553H1082.62V415H1125.62ZM1267.88 415V496C1267.88 510.667 1265.95 522.4 1262.08 531.2C1258.35 539.867 1252.15 546.133 1243.48 550C1234.95 553.867 1223.48 555.8 1209.08 555.8C1193.48 555.8 1181.01 553.867 1171.68 550C1162.48 546.133 1155.81 539.867 1151.68 531.2C1147.68 522.4 1145.68 510.667 1145.68 496V415H1189.08V496C1189.08 503.333 1189.55 509 1190.48 513C1191.55 517 1193.35 519.8 1195.88 521.4C1198.55 522.867 1202.21 523.6 1206.88 523.6C1211.55 523.6 1215.15 522.867 1217.68 521.4C1220.21 519.8 1221.95 517 1222.88 513C1223.95 509 1224.48 503.333 1224.48 496V415H1267.88ZM1439.7 415C1449.43 415 1454.5 420 1454.9 430L1459.7 553H1420.7L1416.5 447.4H1413.5L1399.9 517.8C1398.56 526.6 1393.1 531 1383.5 531H1361.1C1351.63 531 1346.1 526.6 1344.5 517.8L1330.7 447.4H1327.7L1324.3 553H1285.3L1290.1 430C1290.5 420 1295.56 415 1305.3 415H1342.7C1352.03 415 1357.5 419.467 1359.1 428.4L1369.1 483.2C1369.63 486.533 1370.03 489.933 1370.3 493.4C1370.7 496.867 1371.03 500.333 1371.3 503.8H1373.1C1373.5 500.333 1373.83 496.867 1374.1 493.4C1374.5 489.933 1374.96 486.533 1375.5 483.2L1384.9 428.4C1386.5 419.467 1392.03 415 1401.5 415H1439.7Z" fill="#323340"/>
<path d="M353 139C353 111.386 375.386 89 403 89H412C439.614 89 462 111.386 462 139V503C462 530.614 439.614 553 412 553H403C375.386 553 353 530.614 353 503V139Z" fill="#3C81FA"/>
<path d="M77 89H68C40.3858 89 18 111.386 18 139V503C18 530.614 40.3858 553 68 553H77C104.614 553 127 530.614 127 503V139C127 111.386 104.614 89 77 89Z" fill="#6572ED"/>
<path d="M26.3963 170.008C11.818 146.556 19.012 115.726 42.4645 101.148L50.1081 96.3963C73.5607 81.8181 104.391 89.0121 118.969 112.465L295.772 396.893L203.199 454.437L26.3963 170.008Z" fill="#3C81FA"/>
<path d="M550.918 113.433L544.51 107.115C524.846 87.7265 493.189 87.9496 473.801 107.613L201.105 384.181C181.717 403.844 181.94 435.502 201.603 454.89L208.012 461.209C227.675 480.597 259.333 480.374 278.721 460.71L551.417 184.142C570.805 164.479 570.582 132.822 550.918 113.433Z" fill="#FEAC4F"/>
<path d="M605.5 109C635.6 109 660 84.5995 660 54.5C660 24.4005 635.6 0 605.5 0C575.4 0 551 24.4005 551 54.5C551 84.5995 575.4 109 605.5 109Z" fill="#FEAC4F"/>
<path d="M422.5 109C452.6 109 477 84.5995 477 54.5C477 24.4005 452.6 0 422.5 0C392.4 0 368 24.4005 368 54.5C368 84.5995 392.4 109 422.5 109Z" fill="#FEAC4F"/>
</svg>
